<?xml version="1.0" encoding="UTF-8" standalone="no"?>
<svg
   width="175"
   height="30"
   viewBox="0 0 46.375 7.95"
   version="1.1"
   id="svg8"
   sodipodi:docname="sera_quasar_logo.svg"
   inkscape:version="1.2.1 (9c6d41e410, 2022-07-14)"
   inkscape:export-filename="D:\Fourshome\Downloads\logo.png"
   inkscape:export-xdpi="54.613335"
   inkscape:export-ydpi="54.613335"
   xmlns:inkscape="http://www.inkscape.org/namespaces/inkscape"
   xmlns:sodipodi="http://sodipodi.sourceforge.net/DTD/sodipodi-0.dtd"
   xmlns="http://www.w3.org/2000/svg"
   xmlns:svg="http://www.w3.org/2000/svg"
   xmlns:rdf="http://www.w3.org/1999/02/22-rdf-syntax-ns#"
   xmlns:cc="http://creativecommons.org/ns#"
   xmlns:dc="http://purl.org/dc/elements/1.1/">
  <defs
     id="defs2">
    <inkscape:path-effect
       effect="powerclip"
       id="path-effect1662"
       is_visible="true"
       lpeversion="1"
       inverse="true"
       flatten="false"
       hide_clip="false"
       message="클립을 경로로 변환한 후 병합 결과가 없는 경우, &lt;b&gt;채움 및 자획&lt;/b&gt; 대화상자에서 채움 규칙 짝수ㆍ홀수를 사용합니다." />
    <linearGradient
       id="linearGradient1324"
       inkscape:swatch="gradient">
      <stop
         style="stop-color:#f5ceb3;stop-opacity:1;"
         offset="0"
         id="stop1320" />
      <stop
         style="stop-color:#f5ceb3;stop-opacity:0;"
         offset="1"
         id="stop1322" />
    </linearGradient>
    <linearGradient
       id="linearGradient882"
       inkscape:swatch="solid">
      <stop
         style="stop-color:#000000;stop-opacity:1;"
         offset="0"
         id="stop880" />
    </linearGradient>
    <clipPath
       clipPathUnits="userSpaceOnUse"
       id="clipPath1646">
      <path
         style="display:none;fill:#ffe6d5;fill-opacity:1;stroke:none;stroke-width:0.264583px;stroke-linecap:butt;stroke-linejoin:miter;stroke-opacity:1"
         d="M 80.475151,75.210424 120.64026,39.937492 163.58267,81.979363 Z"
         id="path1648" />
      <path
         id="lpe_path-effect1662"
         style="fill:#ffe6d5;fill-opacity:1;stroke:none;stroke-width:0.264583px;stroke-linecap:butt;stroke-linejoin:miter;stroke-opacity:1"
         class="powerclip"
         d="M 49.253964,41.646406 H 190.5822 V 74.209533 H 49.253964 Z m 31.221187,33.564018 83.107519,6.768939 -42.94241,-42.041871 z" />
    </clipPath>
  </defs>
  <sodipodi:namedview
     id="base"
     pagecolor="#ffffff"
     bordercolor="#666666"
     borderopacity="1.0"
     inkscape:pageopacity="0.0"
     inkscape:pageshadow="2"
     inkscape:zoom="5.6662393"
     inkscape:cx="130.86281"
     inkscape:cy="34.237876"
     inkscape:document-units="mm"
     inkscape:current-layer="layer1"
     inkscape:document-rotation="0"
     showgrid="false"
     units="mm"
     height="210mm"
     showguides="false"
     inkscape:guide-bbox="true"
     inkscape:showpageshadow="false"
     showborder="true"
     borderlayer="false"
     scale-x="100"
     width="200mm"
     inkscape:window-width="2560"
     inkscape:window-height="1377"
     inkscape:window-x="2552"
     inkscape:window-y="-8"
     inkscape:window-maximized="1"
     fit-margin-top="0"
     fit-margin-left="10"
     fit-margin-right="10"
     fit-margin-bottom="0"
     inkscape:pagecheckerboard="false"
     inkscape:deskcolor="#d1d1d1">
    <sodipodi:guide
       position="214.63628,24.262505"
       orientation="0,-1"
       id="guide845"
       inkscape:locked="false" />
    <sodipodi:guide
       position="-10.637505,-166.82074"
       orientation="1,0"
       id="guide847"
       inkscape:locked="false" />
    <sodipodi:guide
       position="230.13332,77.491707"
       orientation="1,0"
       id="guide849"
       inkscape:locked="false" />
    <sodipodi:guide
       position="211.61247,-174.1749"
       orientation="0,-1"
       id="guide851"
       inkscape:locked="false" />
    <inkscape:grid
       type="xygrid"
       id="grid861"
       units="mm"
       spacingx="0"
       spacingy="0"
       dotted="false"
       empspacing="5"
       originx="-10.637525"
       originy="-34.262407" />
    <sodipodi:guide
       position="111.0708,-129.19575"
       orientation="0,-1"
       id="guide887"
       inkscape:locked="false" />
    <sodipodi:guide
       position="87.258309,-49.508287"
       orientation="0,-1"
       id="guide919"
       inkscape:locked="false" />
    <sodipodi:guide
       position="338.83702,-129.19575"
       orientation="0,-1"
       id="guide982"
       inkscape:locked="false" />
    <sodipodi:guide
       position="108.42498,85.429197"
       orientation="1,0"
       id="guide1051"
       inkscape:locked="false" />
    <sodipodi:guide
       position="-74.13749,21.929187"
       orientation="0,-1"
       id="guide1053"
       inkscape:locked="false" />
    <sodipodi:guide
       position="5.237494,-176.50824"
       orientation="0,-1"
       id="guide1055"
       inkscape:locked="false" />
    <sodipodi:guide
       position="68.73748,69.554217"
       orientation="1,0"
       id="guide1025"
       inkscape:locked="false" />
    <sodipodi:guide
       position="34.341656,-86.549953"
       orientation="1,0"
       id="guide1027"
       inkscape:locked="false" />
    <sodipodi:guide
       position="185.15414,-89.195786"
       orientation="1,0"
       id="guide1029"
       inkscape:locked="false" />
    <sodipodi:guide
       position="148.11245,-75.966621"
       orientation="1,0"
       id="guide1031"
       inkscape:locked="false" />
    <sodipodi:guide
       position="164.73887,-67.124966"
       orientation="0,-1"
       id="guide315"
       inkscape:locked="false" />
    <sodipodi:guide
       position="151.2908,-31.636998"
       orientation="0,-1"
       id="guide317"
       inkscape:locked="false" />
  </sodipodi:namedview>
  <metadata
     id="metadata5">
    <rdf:RDF>
      <cc:Work
         rdf:about="">
        <dc:format>image/svg+xml</dc:format>
        <dc:type
           rdf:resource="http://purl.org/dc/dcmitype/StillImage" />
      </cc:Work>
    </rdf:RDF>
  </metadata>
  <g
     inkscape:label="뒷머리"
     inkscape:groupmode="layer"
     id="g964"
     style="display:inline;opacity:1;mix-blend-mode:normal"
     transform="translate(-10.637506,-34.262546)">
    <g
       id="g991"
       style="fill:#00b4ff;fill-opacity:1;stroke:none;stroke-width:1;stroke-miterlimit:4;stroke-dasharray:none;stroke-opacity:1"
       transform="matrix(0.03586361,0,0,0.03586361,10.558431,34.590218)">
      <g
         id="g985"
         style="fill:#00b4ff;fill-opacity:1;stroke:none;stroke-width:1;stroke-miterlimit:4;stroke-dasharray:none;stroke-opacity:1">
        <ellipse
           style="display:inline;fill:#00b4ff;fill-opacity:1;stroke:none;stroke-width:1;stroke-linecap:round;stroke-linejoin:round;stroke-miterlimit:4;stroke-dasharray:none;stroke-opacity:1"
           id="ellipse929-0"
           cx="119.89081"
           cy="105.00179"
           rx="75.702065"
           ry="70.145821" />
        <path
           style="fill:#00b4ff;fill-opacity:1;stroke:none;stroke-width:1;stroke-linecap:round;stroke-linejoin:round;stroke-miterlimit:4;stroke-dasharray:none;stroke-opacity:1"
           d="m 44.450011,114.56459 c -4.50519,14.16371 -2.638016,33.33718 -23.812505,34.39587 32.054824,11.26968 63.849974,23.6418 97.895924,26.45833 31.45767,-1.88668 65.78244,-13.44008 100.54168,-26.45833 -22.61616,-2.21265 -18.81361,-21.07821 -23.8125,-34.39588"
           id="path936"
           sodipodi:nodetypes="ccccc" />
      </g>
      <path
         style="fill:#00b4ff;fill-opacity:1;stroke:none;stroke-width:1;stroke-linecap:butt;stroke-linejoin:miter;stroke-miterlimit:4;stroke-dasharray:none;stroke-opacity:1"
         d="m 142.34594,148.96046 v 0"
         id="path942"
         sodipodi:nodetypes="cc" />
    </g>
  </g>
  <g
     inkscape:label="뒷머리 명암"
     inkscape:groupmode="layer"
     id="g1390"
     style="display:inline"
     transform="translate(-10.637506,-34.262546)">
    <g
       id="g1395"
       transform="matrix(0.03293483,0,0,0.03353479,10.918397,34.886349)"
       style="fill:#000000;fill-opacity:0.1;stroke:none">
      <ellipse
         style="display:inline;fill:#000000;fill-opacity:0.1;stroke:none;stroke-width:5;stroke-linecap:round;stroke-linejoin:round;stroke-miterlimit:4;stroke-dasharray:none;stroke-opacity:1"
         id="ellipse1384"
         cx="119.89081"
         cy="107.64764"
         rx="75.702065"
         ry="70.145821" />
      <path
         style="fill:#000000;fill-opacity:0.1;stroke:none;stroke-width:5;stroke-linecap:round;stroke-linejoin:round;stroke-miterlimit:4;stroke-dasharray:none;stroke-opacity:1"
         d="m 44.450011,117.21044 c -4.50519,14.16371 -2.638016,33.33718 -23.812505,34.39587 32.054824,11.26968 63.849974,23.6418 97.895924,26.45833 31.45767,-1.88668 65.78244,-13.44008 100.54168,-26.45833 -22.61616,-2.21265 -18.81361,-21.07821 -23.8125,-34.39588"
         id="path1386"
         sodipodi:nodetypes="ccccc" />
      <path
         style="fill:#000000;fill-opacity:0.1;stroke:none;stroke-width:5;stroke-linecap:butt;stroke-linejoin:miter;stroke-miterlimit:4;stroke-dasharray:none;stroke-opacity:1"
         d="m 142.34594,151.60631 v 0"
         id="path1388"
         sodipodi:nodetypes="cc" />
    </g>
  </g>
  <g
     inkscape:groupmode="layer"
     id="layer3"
     inkscape:label="얼굴"
     style="display:inline"
     transform="translate(-10.637506,-34.262546)">
    <ellipse
       style="display:inline;fill:#ffe6d5;fill-opacity:1;stroke:none;stroke-width:0.179318;stroke-linecap:round;stroke-linejoin:round;stroke-miterlimit:4;stroke-dasharray:none;stroke-opacity:1"
       id="ellipse929"
       cx="14.852656"
       cy="38.45586"
       rx="2.7149489"
       ry="2.5156822" />
  </g>
  <g
     inkscape:groupmode="layer"
     id="g1336"
     inkscape:label="얼굴 명암"
     style="display:inline"
     transform="translate(-10.637506,-34.262546)">
    <ellipse
       style="display:inline;fill:#ffe6d5;fill-opacity:1;stroke:none;stroke-width:0.179318;stroke-linecap:round;stroke-linejoin:round;stroke-miterlimit:4;stroke-dasharray:none;stroke-opacity:1"
       id="ellipse1334"
       cx="14.852656"
       cy="38.45586"
       rx="2.7149489"
       ry="2.5156822" />
    <path
       style="fill:none;fill-opacity:1;fill-rule:nonzero;stroke:none;stroke-width:0.362223;stroke-linecap:round;stroke-linejoin:round;stroke-miterlimit:4;stroke-dasharray:none;stroke-opacity:1;paint-order:markers stroke fill"
       d="m 14.554889,40.950699 c -0.304853,-0.03069 -0.655574,-0.128464 -0.930574,-0.259415 -0.75209,-0.358139 -1.271819,-1.002726 -1.436366,-1.781434 -0.04124,-0.19516 -0.05151,-0.568032 -0.02129,-0.772834 0.07903,-0.535757 0.311906,-0.995321 0.702013,-1.385426 0.397753,-0.397756 0.911684,-0.661001 1.490673,-0.763554 0.226506,-0.04012 0.613577,-0.04889 0.846701,-0.01917 1.170867,0.149223 2.076456,0.943353 2.309592,2.025331 0.04103,0.190436 0.05162,0.588995 0.02116,0.796225 -0.118696,0.807286 -0.647497,1.505971 -1.428069,1.886851 -0.470411,0.229537 -1.023352,0.326842 -1.553821,0.273431 z m 0.812987,-0.300177 c 0.515908,-0.108996 0.941781,-0.335116 1.284176,-0.681846 0.289471,-0.293134 0.496431,-0.673126 0.582645,-1.069772 0.04328,-0.199128 0.0434,-0.614637 2.33e-4,-0.813139 -0.09792,-0.450276 -0.300261,-0.80793 -0.641269,-1.133511 -0.351598,-0.335689 -0.784713,-0.549239 -1.29861,-0.640282 -0.238395,-0.04224 -0.637523,-0.04257 -0.868284,-7.26e-4 -0.980702,0.177832 -1.716127,0.832638 -1.928318,1.716929 -0.11747,0.489572 -0.02767,1.063196 0.235833,1.506153 0.155652,0.261669 0.401237,0.526988 0.654477,0.707066 0.251013,0.178494 0.620868,0.338458 0.926611,0.400765 0.228338,0.04653 0.311006,0.05313 0.603658,0.04816 0.241101,-0.0041 0.307848,-0.01 0.448848,-0.03981 z"
       id="path1348" />
    <path
       style="fill:#e9c6af;fill-opacity:0.393064;fill-rule:nonzero;stroke:none;stroke-width:0.514826;stroke-linecap:round;stroke-linejoin:round;stroke-miterlimit:4;stroke-dasharray:none;stroke-opacity:1;paint-order:markers stroke fill"
       d="m 14.554889,40.950699 c -1.060061,-0.106726 -1.971751,-0.804357 -2.286394,-1.749559 -0.0949,-0.285093 -0.112602,-0.399935 -0.113452,-0.736349 -8.74e-4,-0.33612 0.0204,-0.481577 0.109105,-0.74674 0.05178,-0.154754 0.16226,-0.401717 0.17432,-0.389657 0.0041,0.0041 -0.01032,0.04305 -0.03212,0.08645 -0.200524,0.398909 -0.27383,0.90143 -0.198413,1.360139 0.174097,1.058913 1.091336,1.884627 2.239073,2.015652 0.156156,0.01783 0.467593,0.01796 0.613994,2.61e-4 1.129335,-0.136516 2.015775,-0.91262 2.22549,-1.948483 0.06143,-0.303396 0.04746,-0.710597 -0.03494,-1.018238 -0.194625,-0.726718 -0.762002,-1.34428 -1.496166,-1.628501 -0.811594,-0.3142 -1.722281,-0.231852 -2.443515,0.220954 -0.06393,0.04014 -0.119109,0.07014 -0.1226,0.06664 -0.0083,-0.0083 0.190847,-0.137106 0.320421,-0.207371 0.233118,-0.126414 0.55345,-0.234877 0.849654,-0.287686 0.226118,-0.04031 0.612873,-0.04916 0.846702,-0.01935 1.170865,0.149222 2.076455,0.943353 2.30959,2.025331 0.04103,0.190436 0.05162,0.588995 0.02116,0.796225 -0.118697,0.807286 -0.647496,1.50597 -1.428069,1.886851 -0.470411,0.229538 -1.023352,0.32684 -1.553822,0.273431 z"
       id="path1350" />
  </g>
  <g
     inkscape:groupmode="layer"
     id="g1405"
     inkscape:label="얼굴 명암2"
     style="display:inline"
     transform="translate(-10.637506,-34.262546)">
    <path
       style="fill:#f6dac6;fill-opacity:1;fill-rule:nonzero;stroke:#f6dac6;stroke-width:0.177024;stroke-linecap:square;stroke-linejoin:miter;stroke-miterlimit:4;stroke-dasharray:none;stroke-opacity:1;paint-order:markers stroke fill"
       d="m 12.259429,38.496886 c -0.0119,-0.05545 0.01311,-0.353106 0.04118,-0.489386 0.125445,-0.608891 0.542649,-1.169776 1.146658,-1.541562 0.368018,-0.226526 0.893957,-0.398463 1.328828,-0.434413 l 0.108923,-0.009 -0.132088,0.125977 c -0.07265,0.06929 -0.611083,0.587218 -1.196518,1.150957 -0.585436,0.563739 -1.114854,1.072608 -1.176486,1.130821 l -0.112055,0.10584 z"
       id="path1397" />
    <path
       style="display:inline;fill:#f6dac6;fill-opacity:1;fill-rule:nonzero;stroke:#f6dac6;stroke-width:0.177024;stroke-linecap:square;stroke-linejoin:miter;stroke-miterlimit:4;stroke-dasharray:none;stroke-opacity:1;paint-order:markers stroke fill"
       d="m 17.510622,38.496886 c 0.0119,-0.05545 -0.01311,-0.353106 -0.04119,-0.489386 -0.125447,-0.608891 -0.542649,-1.169776 -1.146659,-1.541562 -0.368017,-0.226526 -0.893955,-0.398463 -1.328826,-0.434413 l -0.108923,-0.009 0.132088,0.125977 c 0.07265,0.06929 0.611081,0.587218 1.196517,1.150957 0.585434,0.563739 1.114853,1.072608 1.176484,1.130821 l 0.112055,0.10584 z"
       id="path1399" />
    <path
       style="fill:#f6dac6;fill-opacity:1;fill-rule:nonzero;stroke:#f6dac6;stroke-width:0.251604;stroke-linecap:square;stroke-linejoin:miter;stroke-miterlimit:4;stroke-dasharray:none;stroke-opacity:1;paint-order:markers stroke fill"
       d="m 12.359248,38.283852 c 0,-0.119959 0.08628,-0.434072 0.174624,-0.635755 0.280203,-0.639659 0.816594,-1.115279 1.534074,-1.360267 0.171228,-0.05847 0.451075,-0.123143 0.493913,-0.114156 0.01314,0.0028 -0.157609,0.175916 -0.463107,0.469655 -0.266149,0.255909 -0.766418,0.737057 -1.111707,1.069218 -0.51069,0.491277 -0.627797,0.597845 -0.627797,0.5713 z"
       id="path1401" />
    <path
       style="fill:#f6dac6;fill-opacity:1;fill-rule:nonzero;stroke:#f6dac6;stroke-width:0.251604;stroke-linecap:square;stroke-linejoin:miter;stroke-miterlimit:4;stroke-dasharray:none;stroke-opacity:1;paint-order:markers stroke fill"
       d="m 16.291919,37.240116 c -0.688866,-0.662047 -1.097386,-1.063829 -1.084626,-1.066741 0.03927,-0.009 0.274832,0.04227 0.434348,0.09449 0.399673,0.130814 0.694571,0.292887 0.985589,0.541669 0.353718,0.302385 0.6237,0.731025 0.733494,1.164548 0.02952,0.11656 0.05713,0.328107 0.04283,0.328107 -0.0036,0 -0.503839,-0.477932 -1.11164,-1.062069 z"
       id="path1403" />
  </g>
  <g
     inkscape:groupmode="layer"
     id="layer5"
     inkscape:label="앞머리"
     style="display:inline"
     transform="translate(-10.637506,-34.262546)">
    <g
       id="g997"
       style="fill:#00b4ff;fill-opacity:1;stroke:#00b4ff;stroke-opacity:1"
       transform="matrix(0.03586361,0,0,0.03586361,10.558431,34.590218)">
      <path
         style="fill:#00b4ff;fill-opacity:1;fill-rule:nonzero;stroke:#00b4ff;stroke-width:5;stroke-linecap:butt;stroke-linejoin:round;stroke-miterlimit:4;stroke-dasharray:none;stroke-opacity:1;paint-order:markers stroke fill"
         d="M 44.462144,105.75623 C 44.120531,104.21035 44.837336,95.91045 45.640631,92.110493 49.229693,75.132546 61.166109,59.493123 78.447168,49.126468 88.976327,42.810176 104.02377,38.015979 116.46565,37.01356 l 3.11627,-0.251071 -3.77912,3.512653 C 113.72428,42.207103 98.319395,56.648779 81.569777,72.367756 64.820155,88.086736 49.673209,102.27574 47.909894,103.8989 l -3.206025,2.95121 z"
         id="path1211" />
      <path
         style="display:inline;fill:#00b4ff;fill-opacity:1;fill-rule:nonzero;stroke:#00b4ff;stroke-width:5;stroke-linecap:butt;stroke-linejoin:round;stroke-miterlimit:4;stroke-dasharray:none;stroke-opacity:1;paint-order:markers stroke fill"
         d="m 194.70167,105.75623 c 0.34161,-1.54588 -0.3752,-9.84578 -1.17848,-13.64574 C 189.93411,75.132546 177.99771,59.493123 160.71666,49.126468 150.18749,42.810176 135.14007,38.015979 122.69819,37.01356 l -3.11627,-0.251071 3.77912,3.512653 c 2.07853,1.931961 17.48337,16.373637 34.23299,32.092614 16.74963,15.718984 31.89658,29.907984 33.65988,31.531144 l 3.20604,2.95121 z"
         id="path1211-5" />
      <path
         style="fill:#00b4ff;fill-opacity:1;fill-rule:nonzero;stroke:#00b4ff;stroke-width:26.8592;stroke-linecap:butt;stroke-linejoin:round;stroke-miterlimit:4;stroke-dasharray:none;stroke-opacity:1;paint-order:markers stroke fill"
         d="m 178.83983,377.25767 c 0,-12.64232 9.32956,-45.74506 18.88296,-66.99974 30.29944,-67.41106 88.30172,-117.53471 165.88596,-143.35315 18.51563,-6.16162 48.77666,-12.97766 53.40901,-12.02993 1.42022,0.29056 -17.04301,18.53899 -50.07769,49.49508 -28.78004,26.96916 -82.87624,77.67553 -120.21379,112.68083 -55.22325,51.7738 -67.88645,63.00449 -67.88645,60.20691 z"
         id="path1289"
         transform="scale(0.26458333)" />
      <path
         style="fill:#00b4ff;fill-opacity:1;fill-rule:nonzero;stroke:#00b4ff;stroke-width:26.8592;stroke-linecap:butt;stroke-linejoin:round;stroke-miterlimit:4;stroke-dasharray:none;stroke-opacity:1;paint-order:markers stroke fill"
         d="M 604.0968,267.26243 C 529.60656,197.49187 485.43168,155.14964 486.8113,154.84269 c 4.24699,-0.94491 29.71878,4.45527 46.96798,9.95751 43.21834,13.786 75.10692,30.86623 106.57596,57.08445 38.24926,31.86713 67.44348,77.03994 79.31601,122.72723 3.19227,12.28434 6.17863,34.57787 4.63194,34.57787 -0.38922,0 -54.4821,-50.36729 -120.20639,-111.92732 z"
         id="path1291"
         transform="scale(0.26458333)" />
    </g>
  </g>
  <g
     inkscape:groupmode="layer"
     id="g1415"
     inkscape:label="앞머리 명암"
     style="display:inline"
     transform="translate(-10.637506,-34.262546)">
    <path
       style="fill:#ffffff;fill-opacity:0.274566;stroke:none;stroke-width:0.264583px;stroke-linecap:butt;stroke-linejoin:miter;stroke-opacity:1"
       d="m 68.791666,51.858331 16.759765,-3.707719 22.187069,4.88868 19.17865,-6.392886 33.15577,7.857759 c 5.95445,2.03327 8.51563,-3.599049 14.23742,0.475513 4.82258,3.434225 11.27186,12.005918 11.27186,12.005918 l -26.27743,-4.739084 -16.96948,6.963021 -18.42655,-9.025253 -25.947591,6.392887 -10.153407,-7.144991 -19.554708,5.640779 -13.99907,0.575344 c 5.367492,-5.363296 8.935194,-9.287646 14.537702,-13.789968 z"
       id="path1610"
       clip-path="url(#clipPath1646)"
       inkscape:path-effect="#path-effect1662"
       inkscape:original-d="m 68.791666,51.858331 16.759765,-3.707719 22.187069,4.88868 19.17865,-6.392886 33.15577,7.857759 c 5.95445,2.03327 8.51563,-3.599049 14.23742,0.475513 4.82258,3.434225 11.27186,12.005918 11.27186,12.005918 l -26.27743,-4.739084 -16.96948,6.963021 -18.42655,-9.025253 -25.947591,6.392887 -10.153407,-7.144991 -19.554708,5.640779 -13.99907,0.575344 c 5.367492,-5.363296 8.935194,-9.287646 14.537702,-13.789968 z"
       transform="matrix(0.03586361,0,0,0.03586361,10.558431,34.628175)"
       sodipodi:nodetypes="cccccsccccccccc" />
  </g>
  <g
     inkscape:groupmode="layer"
     id="layer4"
     inkscape:label="눈"
     style="display:inline"
     transform="translate(-10.637506,-34.262546)">
    <circle
       style="display:inline;fill:#502d16;fill-opacity:1;stroke:#502d16;stroke-width:0.179318;stroke-linecap:round;stroke-linejoin:round;stroke-miterlimit:4;stroke-dasharray:none;stroke-opacity:1;paint-order:markers stroke fill"
       id="path999"
       cx="13.405104"
       cy="38.613514"
       r="0.18977824" />
    <circle
       style="display:inline;fill:#502d16;fill-opacity:1;stroke:#502d16;stroke-width:0.179318;stroke-linecap:round;stroke-linejoin:round;stroke-miterlimit:4;stroke-dasharray:none;stroke-opacity:1;paint-order:markers stroke fill"
       id="path999-0"
       cx="16.258049"
       cy="38.622009"
       r="0.18977824" />
  </g>
  <g
     id="layer6"
     inkscape:label="입"
     style="display:inline"
     transform="matrix(0.75451608,0,0,0.75451608,-7.8403714,-25.187702)">
    <path
       style="display:inline;fill:none;fill-opacity:0.32948;stroke:#502d16;stroke-width:0.380255;stroke-linecap:butt;stroke-linejoin:miter;stroke-miterlimit:4;stroke-dasharray:none;stroke-opacity:1"
       d="m 15.191159,40.092373 c 0.0011,0.587736 1.508904,0.613002 1.509143,0 v 0"
       id="path944"
       sodipodi:nodetypes="ccc" />
  </g>
  <g
     inkscape:groupmode="layer"
     id="layer1"
     inkscape:label="텍스트">
    <g
       aria-label="Sera's Quasar"
       id="text309"
       style="font-size:5.73412px;line-height:1.25;font-family:Nunito;-inkscape-font-specification:Nunito;fill:#00b4ff;stroke-width:0.143354">
      <path
         d="m 10.731158,6.0648724 q -0.252302,0 -0.504603,-0.040139 Q 9.9742538,5.9903288 9.7506231,5.9157852 9.5269925,5.8355076 9.3492348,5.7208252 9.2460206,5.6520157 9.2058818,5.5545357 q -0.040139,-0.09748 -0.028671,-0.189226 0.017202,-0.09748 0.074543,-0.1662894 0.063075,-0.074544 0.1548213,-0.091746 0.091746,-0.017202 0.2006941,0.051607 0.2523013,0.1490871 0.5332729,0.2178966 0.280972,0.068809 0.590615,0.068809 0.452995,0 0.659423,-0.1490871 0.206429,-0.1548212 0.206429,-0.3956543 0,-0.2006942 -0.149087,-0.3153766 Q 11.30457,4.470787 10.949054,4.3962435 L 10.318301,4.2643587 Q 9.7735596,4.1496763 9.504056,3.8801727 9.2402865,3.6049349 9.2402865,3.1576736 q 0,-0.2809719 0.1146824,-0.5103367 Q 9.4696513,2.4179721 9.6760796,2.2516826 9.888242,2.0853932 10.174948,1.9993814 q 0.29244,-0.091746 0.642221,-0.091746 0.344048,0 0.65369,0.086012 0.309643,0.086012 0.55621,0.2523013 0.09175,0.063075 0.120416,0.1548213 0.0344,0.091746 0.0172,0.1834918 -0.0172,0.086012 -0.08028,0.1490871 -0.06307,0.063075 -0.160555,0.074544 -0.09175,0.011468 -0.212163,-0.057341 -0.212162,-0.1204166 -0.430059,-0.1720236 -0.217896,-0.051607 -0.470198,-0.051607 -0.263769,0 -0.452995,0.074544 -0.189226,0.074543 -0.29244,0.2121624 -0.09748,0.1318847 -0.09748,0.3153766 0,0.2064283 0.1376193,0.3325789 0.137618,0.1204166 0.470197,0.189226 l 0.625019,0.1318847 q 0.567678,0.1204166 0.842916,0.378452 0.280972,0.2580354 0.280972,0.6880943 0,0.2752378 -0.114682,0.4988685 -0.108949,0.2236307 -0.321111,0.384186 -0.206428,0.1605554 -0.498869,0.2465672 -0.29244,0.086012 -0.659423,0.086012 z"
         style="font-weight:bold;-inkscape-font-specification:'Nunito Bold'"
         id="path521" />
      <path
         d="m 14.269113,6.0648724 q -0.475932,0 -0.819979,-0.1777578 Q 13.105086,5.7093569 12.91586,5.3825121 12.732369,5.0556673 12.732369,4.6084059 q 0,-0.4357931 0.177757,-0.7626379 0.183492,-0.3268449 0.498869,-0.5103367 0.32111,-0.189226 0.728233,-0.189226 0.298174,0 0.533273,0.09748 0.240833,0.09748 0.407123,0.2809719 0.172023,0.1834918 0.258035,0.4472613 0.09175,0.2580354 0.09175,0.5848802 0,0.1032142 -0.07454,0.1605554 -0.06881,0.051607 -0.200694,0.051607 H 13.311515 V 4.3561046 h 1.611287 l -0.09175,0.086012 q 0,-0.2637695 -0.08028,-0.4415272 -0.07454,-0.1777577 -0.223631,-0.2695036 -0.143353,-0.09748 -0.361249,-0.09748 -0.240833,0 -0.412857,0.1146824 -0.16629,0.1089483 -0.258035,0.3153766 -0.08601,0.2006942 -0.08601,0.4816661 v 0.040139 q 0,0.4701979 0.217896,0.7052968 0.223631,0.2293648 0.65369,0.2293648 0.149087,0 0.332579,-0.034405 0.189226,-0.040139 0.355515,-0.1318848 0.120417,-0.068809 0.212163,-0.057341 0.09175,0.00573 0.143353,0.063075 0.05734,0.057341 0.06881,0.143353 0.01147,0.080278 -0.03441,0.1662895 -0.04014,0.086012 -0.143353,0.1490871 -0.200694,0.1261506 -0.464463,0.189226 -0.258036,0.057341 -0.481666,0.057341 z"
         style="font-weight:bold;-inkscape-font-specification:'Nunito Bold'"
         id="path523" />
      <path
         d="m 16.362066,6.0534041 q -0.177758,0 -0.275238,-0.091746 -0.09175,-0.09748 -0.09175,-0.2752377 V 3.5189231 q 0,-0.1777577 0.09175,-0.2695036 0.09175,-0.091746 0.258035,-0.091746 0.16629,0 0.258036,0.091746 0.09174,0.091746 0.09174,0.2695036 v 0.3612496 h -0.05734 q 0.08028,-0.3440472 0.315377,-0.5218049 0.235099,-0.1777577 0.625019,-0.2121625 0.120416,-0.011468 0.189226,0.063075 0.07454,0.068809 0.08601,0.2178965 0.01147,0.143353 -0.06881,0.2350989 -0.07454,0.086012 -0.229365,0.1032142 l -0.12615,0.011468 q -0.349782,0.034405 -0.527539,0.2178966 -0.177758,0.1777577 -0.177758,0.5046025 v 1.1869629 q 0,0.1777577 -0.09175,0.2752377 -0.09175,0.091746 -0.269503,0.091746 z"
         style="font-weight:bold;-inkscape-font-specification:'Nunito Bold'"
         id="path525" />
      <path
         d="m 19.137386,6.0648724 q -0.303909,0 -0.544742,-0.1146824 -0.235099,-0.1204166 -0.372718,-0.3211107 -0.131884,-0.2006942 -0.131884,-0.4529955 0,-0.3096425 0.160555,-0.4874002 0.160555,-0.1834918 0.521805,-0.2637695 0.36125,-0.080278 0.969066,-0.080278 h 0.286706 V 4.757493 h -0.280972 q -0.355515,0 -0.567678,0.034405 -0.212162,0.034405 -0.303908,0.1204166 -0.08601,0.080278 -0.08601,0.2293648 0,0.1892259 0.131885,0.3096424 0.131885,0.1204166 0.366984,0.1204166 0.189226,0 0.332579,-0.086012 0.149087,-0.091746 0.235099,-0.2465672 0.08601,-0.1548212 0.08601,-0.3555154 V 4.2242199 q 0,-0.286706 -0.12615,-0.4128567 -0.126151,-0.1261506 -0.424325,-0.1261506 -0.16629,0 -0.36125,0.040139 -0.189226,0.040139 -0.401388,0.1376189 -0.108948,0.051607 -0.19496,0.028671 -0.08028,-0.022937 -0.126151,-0.091746 -0.04587,-0.074544 -0.04587,-0.1605553 0,-0.086012 0.04587,-0.1662895 0.04587,-0.086012 0.154821,-0.1261507 0.26377,-0.1089482 0.504603,-0.1548212 0.246567,-0.045873 0.447261,-0.045873 0.412857,0 0.676627,0.1261507 0.269503,0.1261506 0.401388,0.384186 0.131885,0.2523013 0.131885,0.6536897 v 1.3761888 q 0,0.1777577 -0.08601,0.2752377 -0.08601,0.091746 -0.246567,0.091746 -0.160556,0 -0.252302,-0.091746 -0.08601,-0.09748 -0.08601,-0.2752377 V 5.4111827 h 0.04587 q -0.04014,0.2006942 -0.160556,0.3497813 -0.114682,0.143353 -0.29244,0.2236307 -0.177758,0.080278 -0.407122,0.080278 z"
         style="font-weight:bold;-inkscape-font-specification:'Nunito Bold'"
         id="path527" />
      <path
         d="m 21.677605,3.6737444 q -0.103214,0 -0.183492,-0.074544 -0.07454,-0.074544 -0.08601,-0.2006942 L 21.299153,2.3376944 q -0.0172,-0.1777577 0.09175,-0.2981742 0.108949,-0.1204165 0.286706,-0.1204165 0.114683,0 0.200694,0.057341 0.09175,0.051607 0.137619,0.1490871 0.04587,0.091746 0.0344,0.2121624 l -0.108948,1.0608122 q -0.01147,0.1261507 -0.08601,0.2006942 -0.06881,0.074544 -0.177758,0.074544 z"
         style="font-weight:bold;-inkscape-font-specification:'Nunito Bold'"
         id="path529" />
      <path
         d="m 23.770559,6.0648724 q -0.246567,0 -0.521804,-0.051607 -0.275238,-0.051607 -0.493135,-0.1777577 -0.09175,-0.057341 -0.131885,-0.1318848 -0.0344,-0.080278 -0.02867,-0.1548212 0.01147,-0.080278 0.05734,-0.1376189 0.05161,-0.057341 0.126151,-0.074544 0.08028,-0.017202 0.172023,0.028671 0.229365,0.1089483 0.430059,0.1548213 0.200695,0.040139 0.395655,0.040139 0.275237,0 0.407122,-0.091746 0.137619,-0.09748 0.137619,-0.2523013 0,-0.1318847 -0.09175,-0.2006942 -0.08601,-0.074543 -0.263769,-0.1089483 L 23.392108,4.7976319 Q 23.036592,4.7288224 22.847366,4.5395965 22.663874,4.3446364 22.663874,4.040728 q 0,-0.2752377 0.149087,-0.4759319 0.154822,-0.2006942 0.424325,-0.3096425 0.269504,-0.1089483 0.619285,-0.1089483 0.252302,0 0.470198,0.057341 0.223631,0.051607 0.430059,0.1662895 0.08601,0.045873 0.114682,0.1204165 0.0344,0.074544 0.0172,0.1548213 -0.0172,0.074543 -0.06881,0.1376188 -0.05161,0.057341 -0.131884,0.074544 -0.07454,0.011468 -0.172024,-0.034405 -0.177758,-0.091746 -0.344047,-0.1318848 -0.160555,-0.040139 -0.309643,-0.040139 -0.280971,0 -0.41859,0.09748 -0.131885,0.09748 -0.131885,0.2580354 0,0.1204165 0.08028,0.2006942 0.08028,0.080278 0.246567,0.1089483 l 0.573412,0.1089483 q 0.372717,0.068809 0.561943,0.2523013 0.194961,0.1834918 0.194961,0.4931343 0,0.4185907 -0.326845,0.6594237 -0.326845,0.235099 -0.871587,0.235099 z"
         style="font-weight:bold;-inkscape-font-specification:'Nunito Bold'"
         id="path531" />
      <path
         d="m 30.525357,6.6554867 q 0.08028,0.1261507 0.06308,0.2293648 -0.0172,0.1032142 -0.09174,0.1720236 -0.07454,0.074544 -0.183492,0.091746 -0.108949,0.022936 -0.217897,-0.022937 Q 29.98635,7.0855457 29.911806,6.9651292 L 29.516152,6.3286419 Q 29.435874,6.1967571 29.298256,6.1279477 29.166371,6.0648724 28.971411,6.0648724 l 0.567678,-0.2236307 q 0.269503,0 0.430059,0.09748 0.160555,0.091746 0.309642,0.3268449 z M 28.977145,6.0648724 q -0.58488,0 -1.026408,-0.2580354 Q 27.514944,5.5488016 27.274111,5.0843379 27.033278,4.61414 27.033278,3.9833868 q 0,-0.4759319 0.137619,-0.8543838 0.137619,-0.3841861 0.38992,-0.6536897 0.258036,-0.2752377 0.613551,-0.4185907 0.36125,-0.1490872 0.802777,-0.1490872 0.590614,0 1.026407,0.2580354 0.435793,0.2523013 0.676626,0.716765 0.240833,0.4644637 0.240833,1.0952169 0,0.475932 -0.137618,0.860118 -0.137619,0.384186 -0.395655,0.6594238 -0.252301,0.2752378 -0.613551,0.4243249 -0.355515,0.143353 -0.797042,0.143353 z m 0,-0.6307532 q 0.372718,0 0.630753,-0.1720236 0.263769,-0.1720236 0.401388,-0.4988685 0.143353,-0.3268448 0.143353,-0.7798403 0,-0.6880943 -0.309642,-1.0665463 -0.303908,-0.3784519 -0.865852,-0.3784519 -0.366984,0 -0.630753,0.1720236 -0.26377,0.1662895 -0.407123,0.4931343 -0.137619,0.3211108 -0.137619,0.7798403 0,0.6823603 0.309643,1.0665463 0.309642,0.3841861 0.865852,0.3841861 z"
         style="font-weight:bold;-inkscape-font-specification:'Nunito Bold'"
         id="path533" />
      <path
         d="m 32.612576,6.0648724 q -0.349781,0 -0.579146,-0.1261507 Q 31.804065,5.806837 31.689383,5.5488016 31.580435,5.2907662 31.580435,4.9065801 v -1.387657 q 0,-0.1834918 0.09175,-0.2695036 0.09175,-0.091746 0.263769,-0.091746 0.172024,0 0.26377,0.091746 0.09748,0.086012 0.09748,0.2695036 v 1.3991253 q 0,0.2981742 0.120416,0.4415272 0.120417,0.143353 0.384186,0.143353 0.286706,0 0.470198,-0.1949601 0.183492,-0.2006942 0.183492,-0.527539 V 3.5189231 q 0,-0.1834918 0.09175,-0.2695036 0.09175,-0.091746 0.263769,-0.091746 0.172024,0 0.26377,0.091746 0.09748,0.086012 0.09748,0.2695036 v 2.1674974 q 0,0.3669836 -0.349781,0.3669836 -0.16629,0 -0.258036,-0.091746 -0.09175,-0.09748 -0.09175,-0.2752377 V 5.2506273 l 0.08028,0.1720236 q -0.120417,0.3096425 -0.366984,0.475932 -0.240833,0.1662895 -0.573412,0.1662895 z"
         style="font-weight:bold;-inkscape-font-specification:'Nunito Bold'"
         id="path535" />
      <path
         d="m 35.840887,6.0648724 q -0.303908,0 -0.544741,-0.1146824 -0.235099,-0.1204166 -0.372718,-0.3211107 -0.131885,-0.2006942 -0.131885,-0.4529955 0,-0.3096425 0.160556,-0.4874002 0.160555,-0.1834918 0.521805,-0.2637695 0.361249,-0.080278 0.969066,-0.080278 h 0.286706 V 4.757493 h -0.280972 q -0.355515,0 -0.567678,0.034405 -0.212162,0.034405 -0.303908,0.1204166 -0.08601,0.080278 -0.08601,0.2293648 0,0.1892259 0.131885,0.3096424 0.131885,0.1204166 0.366983,0.1204166 0.189226,0 0.332579,-0.086012 0.149088,-0.091746 0.235099,-0.2465672 0.08601,-0.1548212 0.08601,-0.3555154 V 4.2242199 q 0,-0.286706 -0.126151,-0.4128567 -0.12615,-0.1261506 -0.424324,-0.1261506 -0.16629,0 -0.36125,0.040139 -0.189226,0.040139 -0.401388,0.1376189 -0.108949,0.051607 -0.19496,0.028671 -0.08028,-0.022937 -0.126151,-0.091746 -0.04587,-0.074544 -0.04587,-0.1605553 0,-0.086012 0.04587,-0.1662895 0.04587,-0.086012 0.154821,-0.1261507 0.26377,-0.1089482 0.504603,-0.1548212 0.246567,-0.045873 0.447261,-0.045873 0.412857,0 0.676626,0.1261507 0.269504,0.1261506 0.401389,0.384186 0.131884,0.2523013 0.131884,0.6536897 v 1.3761888 q 0,0.1777577 -0.08601,0.2752377 -0.08601,0.091746 -0.246568,0.091746 -0.160555,0 -0.252301,-0.091746 -0.08601,-0.09748 -0.08601,-0.2752377 V 5.4111827 h 0.04587 q -0.04014,0.2006942 -0.160555,0.3497813 -0.114682,0.143353 -0.29244,0.2236307 -0.177758,0.080278 -0.407123,0.080278 z"
         style="font-weight:bold;-inkscape-font-specification:'Nunito Bold'"
         id="path537" />
      <path
         d="m 39.080671,6.0648724 q -0.246567,0 -0.521804,-0.051607 -0.275238,-0.051607 -0.493135,-0.1777577 -0.09175,-0.057341 -0.131885,-0.1318848 -0.0344,-0.080278 -0.02867,-0.1548212 0.01147,-0.080278 0.05734,-0.1376189 0.05161,-0.057341 0.126151,-0.074544 0.08028,-0.017202 0.172023,0.028671 0.229365,0.1089483 0.430059,0.1548213 0.200695,0.040139 0.395655,0.040139 0.275237,0 0.407122,-0.091746 0.137619,-0.09748 0.137619,-0.2523013 0,-0.1318847 -0.09175,-0.2006942 -0.08601,-0.074543 -0.263769,-0.1089483 L 38.70222,4.7976319 Q 38.346704,4.7288224 38.157478,4.5395965 37.973986,4.3446364 37.973986,4.040728 q 0,-0.2752377 0.149087,-0.4759319 0.154822,-0.2006942 0.424325,-0.3096425 0.269504,-0.1089483 0.619285,-0.1089483 0.252302,0 0.470198,0.057341 0.223631,0.051607 0.430059,0.1662895 0.08601,0.045873 0.114682,0.1204165 0.0344,0.074544 0.0172,0.1548213 -0.0172,0.074543 -0.06881,0.1376188 -0.05161,0.057341 -0.131884,0.074544 -0.07454,0.011468 -0.172024,-0.034405 -0.177758,-0.091746 -0.344047,-0.1318848 -0.160555,-0.040139 -0.309643,-0.040139 -0.280971,0 -0.41859,0.09748 -0.131885,0.09748 -0.131885,0.2580354 0,0.1204165 0.08028,0.2006942 0.08028,0.080278 0.246567,0.1089483 l 0.573412,0.1089483 q 0.372717,0.068809 0.561943,0.2523013 0.194961,0.1834918 0.194961,0.4931343 0,0.4185907 -0.326845,0.6594237 -0.326845,0.235099 -0.871587,0.235099 z"
         style="font-weight:bold;-inkscape-font-specification:'Nunito Bold'"
         id="path539" />
      <path
         d="m 41.775711,6.0648724 q -0.303908,0 -0.544741,-0.1146824 -0.235099,-0.1204166 -0.372718,-0.3211107 -0.131885,-0.2006942 -0.131885,-0.4529955 0,-0.3096425 0.160556,-0.4874002 0.160555,-0.1834918 0.521805,-0.2637695 0.361249,-0.080278 0.969066,-0.080278 H 42.6645 V 4.757493 h -0.280972 q -0.355515,0 -0.567678,0.034405 -0.212162,0.034405 -0.303908,0.1204166 -0.08601,0.080278 -0.08601,0.2293648 0,0.1892259 0.131885,0.3096424 0.131885,0.1204166 0.366983,0.1204166 0.189226,0 0.332579,-0.086012 0.149088,-0.091746 0.235099,-0.2465672 0.08601,-0.1548212 0.08601,-0.3555154 V 4.2242199 q 0,-0.286706 -0.126151,-0.4128567 -0.12615,-0.1261506 -0.424324,-0.1261506 -0.16629,0 -0.36125,0.040139 -0.189226,0.040139 -0.401388,0.1376189 -0.108949,0.051607 -0.19496,0.028671 -0.08028,-0.022937 -0.126151,-0.091746 -0.04587,-0.074544 -0.04587,-0.1605553 0,-0.086012 0.04587,-0.1662895 0.04587,-0.086012 0.154821,-0.1261507 0.26377,-0.1089482 0.504603,-0.1548212 0.246567,-0.045873 0.447261,-0.045873 0.412857,0 0.676626,0.1261507 0.269504,0.1261506 0.401389,0.384186 0.131884,0.2523013 0.131884,0.6536897 v 1.3761888 q 0,0.1777577 -0.08601,0.2752377 -0.08601,0.091746 -0.246568,0.091746 -0.160555,0 -0.252301,-0.091746 -0.08601,-0.09748 -0.08601,-0.2752377 V 5.4111827 h 0.04587 q -0.04014,0.2006942 -0.160555,0.3497813 -0.114682,0.143353 -0.29244,0.2236307 -0.177758,0.080278 -0.407123,0.080278 z"
         style="font-weight:bold;-inkscape-font-specification:'Nunito Bold'"
         id="path541" />
      <path
         d="m 44.356072,6.0534041 q -0.177758,0 -0.275238,-0.091746 -0.09175,-0.09748 -0.09175,-0.2752377 V 3.5189231 q 0,-0.1777577 0.09175,-0.2695036 0.09175,-0.091746 0.258035,-0.091746 0.16629,0 0.258036,0.091746 0.09175,0.091746 0.09175,0.2695036 v 0.3612496 h -0.05734 q 0.08028,-0.3440472 0.315377,-0.5218049 0.235099,-0.1777577 0.625019,-0.2121625 0.120417,-0.011468 0.189226,0.063075 0.07454,0.068809 0.08601,0.2178965 0.01147,0.143353 -0.06881,0.2350989 -0.07454,0.086012 -0.229364,0.1032142 l -0.126151,0.011468 q -0.349781,0.034405 -0.527539,0.2178966 -0.177758,0.1777577 -0.177758,0.5046025 v 1.1869629 q 0,0.1777577 -0.09175,0.2752377 -0.09175,0.091746 -0.269503,0.091746 z"
         style="font-weight:bold;-inkscape-font-specification:'Nunito Bold'"
         id="path543" />
    </g>
  </g>
</svg>
