<?xml version="1.0" standalone="no"?>
<!DOCTYPE svg PUBLIC "-//W3C//DTD SVG 20010904//EN"
 "http://www.w3.org/TR/2001/REC-SVG-20010904/DTD/svg10.dtd">
<svg version="1.0" xmlns="http://www.w3.org/2000/svg"
 width="826.000000pt" height="826.000000pt" viewBox="0 0 826.000000 826.000000"
 preserveAspectRatio="xMidYMid meet">
<metadata>
Created by potrace 1.14, written by Peter Selinger 2001-2017
</metadata>
<g transform="translate(0.000000,826.000000) scale(0.100000,-0.100000)"
fill="#000000" stroke="none">
<path d="M4028 6835 c-1 -1 -34 -6 -73 -9 -79 -7 -138 -14 -175 -22 -14 -2
-40 -7 -57 -10 -81 -13 -311 -61 -368 -75 -284 -73 -635 -229 -920 -409 -62
-39 -199 -136 -221 -157 -14 -13 -27 -23 -30 -23 -8 0 -130 -105 -188 -162
-26 -26 -50 -48 -51 -48 -3 0 -87 -87 -136 -141 -13 -15 -38 -42 -54 -60 -17
-19 -41 -48 -54 -66 -14 -18 -29 -29 -34 -26 -6 3 -7 1 -3 -6 4 -6 -5 -28 -22
-49 -42 -53 -142 -208 -142 -220 0 -6 -4 -12 -9 -14 -13 -5 -136 -262 -171
-358 -47 -129 -95 -315 -106 -410 -3 -25 -7 -58 -9 -75 -24 -168 -26 -386 -5
-432 8 -18 17 -33 20 -33 3 0 13 -7 24 -15 14 -11 19 -31 23 -92 2 -43 5 -87
7 -98 2 -11 -1 -33 -6 -50 -5 -16 -11 -39 -13 -50 -1 -11 -3 -20 -4 -20 -2 0
-5 -11 -7 -25 -3 -14 -9 -41 -14 -60 -5 -20 -23 -101 -40 -181 -96 -470 -178
-649 -360 -790 -100 -78 -289 -140 -428 -142 -22 0 1 -12 58 -31 50 -16 104
-36 155 -57 19 -7 57 -20 80 -25 6 -2 46 -16 90 -32 44 -16 109 -39 145 -51
36 -12 74 -26 85 -31 11 -5 49 -19 85 -30 36 -12 74 -25 85 -30 11 -5 56 -21
100 -36 44 -15 166 -56 270 -91 172 -58 447 -148 485 -158 8 -3 76 -23 150
-46 74 -23 140 -42 145 -43 13 -3 114 -32 195 -56 36 -10 76 -21 90 -23 14 -2
32 -6 40 -9 8 -3 35 -11 60 -18 25 -6 77 -27 116 -46 38 -19 73 -34 77 -34 3
0 30 -11 59 -25 82 -38 340 -121 437 -141 12 -3 51 -11 85 -19 33 -7 79 -16
101 -20 23 -3 52 -8 65 -11 14 -3 43 -7 65 -9 22 -2 67 -7 100 -12 114 -15
591 -8 690 11 44 8 130 20 137 18 4 -1 18 2 30 7 13 5 45 12 72 15 27 4 52 9
56 11 4 2 20 7 36 10 39 8 59 13 59 15 0 1 10 3 22 6 12 2 66 18 120 36 54 17
101 33 106 34 4 1 9 3 12 4 3 1 8 3 13 5 4 1 16 5 27 10 11 4 41 16 67 26 26
10 85 36 131 57 100 47 106 49 194 68 12 2 33 8 45 13 13 5 25 9 28 9 15 1
227 58 365 98 28 8 57 17 65 19 20 5 272 82 335 103 28 8 52 16 55 17 8 1 174
56 190 62 18 7 12 5 85 27 33 10 65 21 70 24 6 4 15 7 20 8 23 5 403 138 450
159 17 7 48 18 70 24 35 11 58 19 140 51 11 5 49 18 85 30 36 13 79 29 95 35
17 7 63 25 103 40 40 15 72 29 70 30 -2 2 -27 6 -57 10 -88 11 -143 26 -241
65 -144 57 -274 178 -341 318 -49 102 -53 111 -73 177 -20 68 -64 258 -72 315
-1 8 -9 49 -18 90 -8 41 -18 89 -20 105 -3 17 -15 62 -27 100 -11 39 -23 79
-26 90 -3 11 -10 25 -14 31 -5 6 -6 14 -2 18 4 3 8 12 9 19 6 45 37 176 46
197 5 14 13 39 16 55 17 81 -4 404 -33 535 -3 14 -8 39 -11 55 -6 43 -9 55
-24 105 -13 47 -71 217 -88 260 -5 14 -11 30 -13 35 -6 20 -141 280 -153 295
-7 8 -30 44 -51 80 -38 64 -47 76 -72 105 -7 7 -13 16 -13 19 0 6 -24 36 -47
61 -7 8 -13 16 -13 20 0 3 -13 19 -30 35 -16 16 -30 32 -30 34 0 10 -184 200
-253 262 -30 26 -206 172 -236 194 -18 14 -38 30 -44 35 -28 24 -200 137 -287
188 -105 61 -299 156 -385 187 -11 4 -31 12 -45 18 -14 6 -68 25 -120 42 -52
17 -102 34 -110 37 -8 3 -24 8 -35 10 -11 2 -38 8 -60 14 -22 6 -51 13 -65 16
-14 2 -50 10 -80 18 -30 8 -75 16 -100 19 -25 3 -56 8 -70 11 -13 2 -42 7 -65
10 -22 3 -47 8 -55 10 -8 2 -43 7 -77 10 -34 3 -72 8 -85 11 -27 6 -264 14
-270 9z"/>
</g>
</svg>
